# xmcd
#
# Track frame offsets: 
#        150
#        14033
#        27463
#        41303
#        54113
#        77593
#        89673
#        113440
#        126676
#        154210
#        175580
#        198004
#
# Disc length: 2871 seconds
#
# Revision: 0
# Processed by: cddbd v1.5.2PL0 Copyright (c) Steve Scherf et al.
# Submitted via: ExactAudioCopy v1.1
#
DISCID=910b350c
DTITLE=Van Morrison - Brown Eyed Girl
DYEAR=2006
DGENRE=Blues
TTITLE0=Brown Eyed Girl
TTITLE1=Goodbye Baby Goodbye
TTITLE2=Ro Ro Rose
TTITLE3=Send You Mind
TTITLE4=He Aint Give You None
TTITLE5=Midnight Special
TTITLE6=Who Drove The Red Sports Car
TTITLE7=The Smile You Smile
TTITLE8=Bedside You
TTITLE9=Madame George
TTITLE10=It's Alright
TTITLE11=Spanish Rose
EXTD=
EXTT0=
EXTT1=
EXTT2=
EXTT3=
EXTT4=
EXTT5=
EXTT6=
EXTT7=
EXTT8=
EXTT9=
EXTT10=
EXTT11=
PLAYORDER=
